<?xml version="1.0" encoding="UTF-8"?>
<svg version="1.1" xmlns="http://www.w3.org/2000/svg" width="112" height="82">
<path d="M0 0 C1.32076538 0.00132935 1.32076538 0.00132935 2.66821289 0.00268555 C10.75391741 0.14888874 18.04020983 1.54631472 24.87890625 6.07421875 C27.15876686 7.57846035 27.15876686 7.57846035 29.375 7.19140625 C32.12326379 6.03336768 34.70021907 4.648537 37.3125 3.21484375 C39.3125 2.375 39.3125 2.375 43.3125 2.375 C42.17185924 5.27047269 40.97823324 8.06829401 39.625 10.875 C38.2103102 14.64750612 38.21920402 15.64193239 39.3125 19.375 C40.52957074 21.74326661 40.52957074 21.74326661 42.0625 24.0625 C44.73917223 28.31968346 46.88280581 32.61856257 48.84375 37.24609375 C50.56184472 40.10249209 50.56184472 40.10249209 56.3125 42.375 C55.9825 47.655 55.6525 52.935 55.3125 58.375 C53.6625 58.601875 52.0125 58.82875 50.3125 59.0625 C43.27149744 60.36571898 38.00569663 62.89361166 33.5 68.5625 C30.73380788 72.78655014 29.5152254 77.51520711 28.3125 82.375 C24.21062167 82.85995113 20.39884061 83.05776797 16.3125 82.375 C14.04421641 80.5729747 12.59330723 78.68992198 10.88671875 76.359375 C8.35624464 73.16959622 6.23289426 72.4251056 2.3125 71.375 C-3.77203139 71.15374431 -6.72545853 73.64973577 -10.98828125 77.5859375 C-12.87322521 79.46855039 -12.87322521 79.46855039 -14.6875 82.375 C-17.9453125 82.66796875 -17.9453125 82.66796875 -21.8125 82.5625 C-23.73449219 82.52189453 -23.73449219 82.52189453 -25.6953125 82.48046875 C-26.68273437 82.44566406 -27.67015625 82.41085938 -28.6875 82.375 C-28.81125 81.61058594 -28.935 80.84617187 -29.0625 80.05859375 C-30.53876154 72.39126035 -32.95205944 66.46777044 -36.765625 59.71630859 C-39.40898259 55.01769116 -41.23405435 50.55290014 -42.6875 45.375 C-43.615625 45.33375 -44.54375 45.2925 -45.5 45.25 C-48.6875 44.375 -48.6875 44.375 -50.5625 41.4375 C-51.6875 38.375 -51.6875 38.375 -51.6875 36.375 C-53.0075 36.045 -54.3275 35.715 -55.6875 35.375 C-53.2125 34.88 -53.2125 34.88 -50.6875 34.375 C-47.6875 38.125 -47.6875 38.125 -47.6875 40.375 C-46.3675 40.375 -45.0475 40.375 -43.6875 40.375 C-43.55794922 39.03308594 -43.55794922 39.03308594 -43.42578125 37.6640625 C-42.12329504 26.45551147 -39.4395351 18.03291731 -31.0625 10.1953125 C-21.80952921 3.10339739 -11.51108914 -0.02078801 0 0 Z M0.3125 12.375 C0.250625 13.138125 0.18875 13.90125 0.125 14.6875 C-0.94932481 18.24103592 -2.49902275 18.66410977 -5.6875 20.375 C-8.01627362 23.25094836 -8.01627362 23.25094836 -7.625 26.8125 C-6.49301587 31.11403968 -5.4106285 32.05838671 -1.6875 34.375 C2.10454415 36.62362478 2.10454415 36.62362478 6.3125 37.375 C6.5078125 43.4296875 6.5078125 43.4296875 6.3125 45.375 C4.3125 47.375 4.3125 47.375 1.4921875 47.5703125 C0.40164062 47.54710937 -0.68890625 47.52390625 -1.8125 47.5 C-2.90820312 47.48195312 -4.00390625 47.46390625 -5.1328125 47.4453125 C-5.97585937 47.42210937 -6.81890625 47.39890625 -7.6875 47.375 C-7.6875 48.035 -7.6875 48.695 -7.6875 49.375 C-4.78149739 50.63164978 -2.89145416 51.375 0.3125 51.375 C0.3125 53.025 0.3125 54.675 0.3125 56.375 C0.9725 56.375 1.6325 56.375 2.3125 56.375 C2.35375 55.611875 2.395 54.84875 2.4375 54.0625 C3.3125 51.375 3.3125 51.375 6.25 49.75 C7.7659375 49.069375 7.7659375 49.069375 9.3125 48.375 C11.81281654 44.62452518 11.84853554 42.81643734 11.3125 38.375 C7.73501171 33.52808038 2.57368419 31.06863461 -2.6875 28.375 C-2.73004356 26.37545254 -2.72830783 24.37458364 -2.6875 22.375 C-1.6875 21.375 -1.6875 21.375 0.81640625 21.27734375 C2.33041016 21.29474609 2.33041016 21.29474609 3.875 21.3125 C4.88691406 21.32152344 5.89882813 21.33054687 6.94140625 21.33984375 C8.11509766 21.35724609 8.11509766 21.35724609 9.3125 21.375 C9.3125 20.385 9.3125 19.395 9.3125 18.375 C6.3425 17.88 6.3425 17.88 3.3125 17.375 C3.3125 15.725 3.3125 14.075 3.3125 12.375 C2.3225 12.375 1.3325 12.375 0.3125 12.375 Z " fill="#FDFDFD" transform="translate(55.6875,-0.375)"/>
</svg>
