<?xml version="1.0" encoding="UTF-8"?>
<svg version="1.1" xmlns="http://www.w3.org/2000/svg" width="87" height="123">
<path d="M0 0 C2.27316726 1.09599136 3.67892733 2.35867123 5.46875 4.13671875 C12.20355836 10.25469419 20.27258995 13.63675671 28.96875 15.94921875 C29.64117264 54.02903014 29.64117264 54.02903014 18.34375 66.13671875 C12.66529441 71.45892142 5.96628064 75.58124839 -1.03125 78.94921875 C-25.33151598 63.50842474 -25.33151598 63.50842474 -28.7109375 49.0390625 C-30.61480647 38.09833605 -30.22662334 27.01336138 -30.03125 15.94921875 C-29.13664062 15.66949219 -28.24203125 15.38976563 -27.3203125 15.1015625 C-18.46190717 12.16450061 -10.37035908 8.83281063 -4.0078125 1.671875 C-2.03125 -0.05078125 -2.03125 -0.05078125 0 0 Z " fill="#FCFBFB" transform="translate(44.03125,23.05078125)"/>
<path d="M0 0 C2.3125 -0.2890625 2.3125 -0.2890625 5 0 C6.625 1.9765625 6.625 1.9765625 8 4.625 C13.83312341 15.08337783 21.2823878 20.97232331 32.7578125 24.484375 C35.87213496 25.20056065 38.96547644 25.5059272 42.15234375 25.69140625 C44 26 44 26 46 28 C46.20032773 30.49086745 46.27980569 32.86773558 46.265625 35.359375 C46.26753845 36.10020325 46.2694519 36.84103149 46.27142334 37.60430908 C46.27278703 39.18135922 46.26907777 40.75842052 46.26074219 42.33544922 C46.25022616 44.69916622 46.26053472 47.06209093 46.2734375 49.42578125 C46.29230153 67.7870091 44.6125588 85.24611188 31.07421875 98.94921875 C25.76240495 103.89202172 19.94502795 107.91823711 13.91796875 111.921875 C9.41344078 115.12991902 6.76184579 117.71446263 5 123 C3.35 123 1.7 123 0 123 C-0.495 121.7315625 -0.495 121.7315625 -1 120.4375 C-4.80924012 113.89036854 -10.72817563 110.11420955 -17 106.0625 C-29.35001124 97.9068322 -36.57784148 87.56729642 -40 73 C-41.39835115 64.56223358 -41.18617912 55.92905793 -41.18530273 47.40185547 C-41.1875207 44.9773684 -41.20582496 42.55331504 -41.22460938 40.12890625 C-41.22753833 38.58593904 -41.22952645 37.0429697 -41.23046875 35.5 C-41.23765427 34.77611084 -41.24483978 34.05222168 -41.25224304 33.30639648 C-41.22886774 28.22886774 -41.22886774 28.22886774 -39 26 C-37.05093313 25.68582206 -35.08928817 25.44784197 -33.125 25.25 C-23.23117049 23.86793512 -13.4100817 19.51481159 -7.05078125 11.5625 C-6.19033203 10.2940625 -6.19033203 10.2940625 -5.3125 9 C-4.73113281 8.154375 -4.14976563 7.30875 -3.55078125 6.4375 C-2.21272538 4.33435929 -1.05887785 2.25337553 0 0 Z M2 11 C1.443125 11.65226563 0.88625 12.30453125 0.3125 12.9765625 C-9.90005833 24.67270194 -19.04783421 29.35780577 -34 33 C-34.07519808 37.60405058 -34.12908615 42.20772935 -34.16479492 46.81225586 C-34.17970976 48.3725407 -34.20004901 49.93278494 -34.22631836 51.49291992 C-34.48975946 67.56282695 -32.94748941 81.59023782 -21.625 93.9375 C-15.94530339 99.35199676 -9.21572638 103.52095281 -2.70117188 107.85009766 C-0.74977823 109.1691367 1.13905118 110.55632579 3 112 C3.43828125 111.5875 3.8765625 111.175 4.328125 110.75 C8.33877942 107.098022 12.42999161 103.99124903 17 101.0625 C27.83691293 93.92433191 35.03731658 85.60942547 38.15625 72.71875 C39.58111471 65.02852271 39.21098279 57.16374271 39.125 49.375 C39.11494793 47.78255773 39.10582603 46.19010929 39.09765625 44.59765625 C39.07582408 40.73161635 39.04141784 36.86587764 39 33 C37.9795459 32.7424292 36.9590918 32.4848584 35.90771484 32.21948242 C34.55037375 31.86929546 33.19311916 31.51877308 31.8359375 31.16796875 C30.8303479 30.91557434 30.8303479 30.91557434 29.80444336 30.65808105 C19.11751895 27.87373575 12.38787805 21.93177091 5 14 C4.00444438 12.99557529 3.00628912 11.99367108 2 11 Z " fill="#FAFAFA" transform="translate(41,0)"/>
<path d="M0 0 C3.58210348 2.36950886 7.05546938 5.11093875 9 9 C10.04584239 16.76911488 8.30205229 22.53159358 4 29 C1.47253142 32.14415222 -1.18673747 35.10994867 -4 38 C-10.89913186 32.75665978 -17.07723014 25.68132099 -18.30859375 16.765625 C-18.55662673 11.92522386 -18.43073251 8.81367424 -15.25 5 C-11.0546911 0.59280681 -6.09791357 -1.48327627 0 0 Z " fill="#FF6A07" transform="translate(48,42)"/>
<path d="M0 0 C2.4375 1.625 2.4375 1.625 4 4 C4.60605429 7.63632575 4.47161336 9.28314769 2.4375 12.375 C-0.93510779 14.62340519 -3.02512383 14.56783945 -7 14 C-9.4375 12.375 -9.4375 12.375 -11 10 C-11.60605429 6.36367425 -11.47161336 4.71685231 -9.4375 1.625 C-6.06489221 -0.62340519 -3.97487617 -0.56783945 0 0 Z " fill="#FFF2EA" transform="translate(47,49)"/>
<path d="M0 0 C2.5625 0.1875 2.5625 0.1875 4.5625 2.1875 C4.23278521 5.48464793 3.9398161 6.8101839 1.5625 9.1875 C-1.37203261 8.82068342 -2.30187246 8.32312754 -4.4375 6.1875 C-3.71780303 0.28598485 -3.71780303 0.28598485 0 0 Z " fill="#FF6D0C" transform="translate(43.4375,51.8125)"/>
<path d="M0 0 C2.0650383 0.51625958 4.09864625 1.03191496 6.125 1.6875 C7.053125 1.8421875 7.053125 1.8421875 8 2 C8.66 1.34 9.32 0.68 10 0 C12.125 0.375 12.125 0.375 14 1 C13.67 1.99 13.34 2.98 13 4 C8.71 4 4.42 4 0 4 C0 2.68 0 1.36 0 0 Z " fill="#FF7214" transform="translate(37,78)"/>
</svg>
