<?xml version="1.0" encoding="UTF-8"?>
<svg version="1.1" xmlns="http://www.w3.org/2000/svg" width="111" height="104">
<path d="M0 0 C2.71758202 0.09807852 5.41024513 0.0619133 8.12866211 0.01000977 C20.72667349 0.05136896 20.72667349 0.05136896 25.58325195 4.11401367 C27.83374023 7.07055664 27.83374023 7.07055664 29.79223633 10.07446289 C32.71039888 14.13611568 35.88665777 14.85424139 40.65014648 15.66040039 C41.52268066 15.83039551 42.39521484 16.00039062 43.29418945 16.17553711 C47.00234619 16.86412915 50.72048566 17.46590253 54.44897461 18.03344727 C55.34938477 18.18749023 56.24979492 18.3415332 57.17749023 18.50024414 C57.98951904 18.62778076 58.80154785 18.75531738 59.63818359 18.88671875 C61.65014648 19.66040039 61.65014648 19.66040039 62.9296875 21.54541016 C63.65014648 23.66040039 63.65014648 23.66040039 63.65014648 26.66040039 C65.13514648 27.15540039 65.13514648 27.15540039 66.65014648 27.66040039 C66.77514648 30.03540039 66.77514648 30.03540039 66.65014648 32.66040039 C65.99014648 33.32040039 65.33014648 33.98040039 64.65014648 34.66040039 C63.33014648 34.66040039 62.01014648 34.66040039 60.65014648 34.66040039 C60.65014648 35.32040039 60.65014648 35.98040039 60.65014648 36.66040039 C57.35014648 36.66040039 54.05014648 36.66040039 50.65014648 36.66040039 C50.65014648 38.31040039 50.65014648 39.96040039 50.65014648 41.66040039 C48.93224198 44.48989017 47.51684208 44.69496079 44.27514648 45.53540039 C40.17099781 45.67692276 38.70544251 45.36651973 35.65014648 42.66040039 C34.66014648 39.69040039 34.66014648 39.69040039 33.65014648 36.66040039 C17.81014648 36.66040039 1.97014648 36.66040039 -14.34985352 36.66040039 C-14.67985352 38.31040039 -15.00985352 39.96040039 -15.34985352 41.66040039 C-17.05223276 44.1691698 -18.24029911 44.6263168 -21.16235352 45.53540039 C-25.04975685 45.68784758 -27.05663543 44.65164853 -30.34985352 42.66040039 C-31.34985352 41.66040039 -31.34985352 41.66040039 -31.41235352 39.09790039 C-31.39172852 38.29352539 -31.37110352 37.48915039 -31.34985352 36.66040039 C-32.03692383 36.68360352 -32.72399414 36.70680664 -33.43188477 36.73071289 C-34.33293945 36.74875977 -35.23399414 36.76680664 -36.16235352 36.78540039 C-37.05567383 36.80860352 -37.94899414 36.83180664 -38.86938477 36.85571289 C-41.34985352 36.66040039 -41.34985352 36.66040039 -44.34985352 34.66040039 C-44.09803308 32.29328833 -43.75521864 30.00298409 -43.34985352 27.66040039 C-43.21256836 26.49057617 -43.21256836 26.49057617 -43.07250977 25.29711914 C-42.53433813 22.57957476 -42.0431627 20.8712357 -40.34985352 18.66040039 C-37.61157227 17.91430664 -37.61157227 17.91430664 -34.28735352 17.47290039 C-30.7905555 17.08903705 -30.7905555 17.08903705 -27.34985352 15.66040039 C-25.28986643 12.75164189 -25.28986643 12.75164189 -24.20664978 10.6000824 C-18.57676624 -0.02058635 -11.27062117 -0.44878029 0 0 Z M-15.34985352 5.66040039 C-15.34985352 8.63040039 -15.34985352 11.60040039 -15.34985352 14.66040039 C-10.72985352 14.66040039 -6.10985352 14.66040039 -1.34985352 14.66040039 C-1.34985352 11.69040039 -1.34985352 8.72040039 -1.34985352 5.66040039 C-5.96985352 5.66040039 -10.58985352 5.66040039 -15.34985352 5.66040039 Z M2.65014648 5.66040039 C2.65014648 8.63040039 2.65014648 11.60040039 2.65014648 14.66040039 C7.60014648 14.66040039 12.55014648 14.66040039 17.65014648 14.66040039 C17.65014648 11.69040039 17.65014648 8.72040039 17.65014648 5.66040039 C12.70014648 5.66040039 7.75014648 5.66040039 2.65014648 5.66040039 Z M21.65014648 7.66040039 C21.65014648 9.97040039 21.65014648 12.28040039 21.65014648 14.66040039 C23.63014648 14.66040039 25.61014648 14.66040039 27.65014648 14.66040039 C26.25682074 11.29319652 24.67121788 9.67444799 21.65014648 7.66040039 Z M40.65014648 33.66040039 C40.32014648 34.98040039 39.99014648 36.30040039 39.65014648 37.66040039 C42.12514648 38.15540039 42.12514648 38.15540039 44.65014648 38.66040039 C44.98014648 37.34040039 45.31014648 36.02040039 45.65014648 34.66040039 C44.00014648 34.33040039 42.35014648 34.00040039 40.65014648 33.66040039 Z M-23.34985352 33.66040039 C-24.33985352 34.15540039 -24.33985352 34.15540039 -25.34985352 34.66040039 C-25.01985352 36.31040039 -24.68985352 37.96040039 -24.34985352 39.66040039 C-23.02985352 39.33040039 -21.70985352 39.00040039 -20.34985352 38.66040039 C-20.34985352 37.34040039 -20.34985352 36.02040039 -20.34985352 34.66040039 C-21.33985352 34.33040039 -22.32985352 34.00040039 -23.34985352 33.66040039 Z " fill="#FDFDFD" transform="translate(44.349853515625,58.339599609375)"/>
<path d="M0 0 C0.88449326 -0.01268417 1.76898651 -0.02536835 2.68028259 -0.03843689 C3.62827225 -0.03550125 4.5762619 -0.03256561 5.55297852 -0.02954102 C7.02493431 -0.03740379 7.02493431 -0.03740379 8.52662659 -0.04542542 C10.60026097 -0.05184374 12.67393177 -0.05051108 14.74755859 -0.04199219 C17.91708365 -0.03348698 21.08480358 -0.06223913 24.25415039 -0.09399414 C26.27042589 -0.0956064 28.28670458 -0.09502815 30.30297852 -0.09204102 C31.72192665 -0.10889198 31.72192665 -0.10889198 33.16954041 -0.12608337 C37.46625429 -0.08067418 39.84871 0.00376822 43.56884766 2.31005859 C48.03286387 7.16461255 46.75832514 13.44588611 46.80688477 19.71655273 C46.83588867 20.9534082 46.86489258 22.19026367 46.89477539 23.46459961 C46.9031543 24.65762695 46.9115332 25.8506543 46.92016602 27.07983398 C46.93474854 28.17207275 46.94933105 29.26431152 46.96435547 30.38964844 C46.38549306 34.10248697 45.0763132 35.72712797 42.49438477 38.40405273 C38.65043474 40.73787954 35.33188213 40.4103275 31.0078125 40.22436523 C17.40008451 39.84369251 8.89800678 45.86482401 -1.5546875 54.02124023 C-3.50561523 55.40405273 -3.50561523 55.40405273 -6.50561523 56.40405273 C-5.87745026 52.4545557 -4.64106233 49.20513245 -2.94311523 45.59155273 C-2.26055664 44.12782227 -2.26055664 44.12782227 -1.56420898 42.63452148 C-1.21487305 41.8984668 -0.86553711 41.16241211 -0.50561523 40.40405273 C-1.41311523 40.15655273 -2.32061523 39.90905273 -3.25561523 39.65405273 C-6.65583263 38.34627681 -8.22231136 37.19475747 -10.50561523 34.40405273 C-12.07337548 29.70077199 -11.73140834 24.95515501 -11.75561523 20.02905273 C-11.77624023 18.98749023 -11.79686523 17.94592773 -11.81811523 16.87280273 C-11.867566 7.20517725 -11.867566 7.20517725 -8.50561523 3.40405273 C-5.61448692 0.87612361 -3.83634525 0.02672969 0 0 Z M8.49438477 11.40405273 C6.35641878 15.01187034 5.47303475 17.33655172 5.55688477 21.52905273 C6.87942818 25.58485254 8.8511752 28.21414236 12.30688477 30.71655273 C15.5612289 31.7393466 18.09902931 31.7552964 21.49438477 31.40405273 C24.54795555 29.79084553 26.73272042 28.37344372 28.86938477 25.65405273 C30.02057483 21.50976849 30.63356646 17.47364178 28.51391602 13.62280273 C25.51556412 9.85871789 22.88217216 7.7912615 18.18188477 7.02905273 C14.37429983 7.56034366 11.4104326 8.95485985 8.49438477 11.40405273 Z " fill="#FDFDFD" transform="translate(54.505615234375,-0.404052734375)"/>
<path d="M0 0 C2.51033417 1.1336993 2.96441202 2.36118938 3.9375 4.875 C3.2775 5.535 2.6175 6.195 1.9375 6.875 C2.453125 7.266875 2.96875 7.65875 3.5 8.0625 C3.974375 8.660625 4.44875 9.25875 4.9375 9.875 C4.625 12.5625 4.625 12.5625 3.9375 14.875 C2.9475 15.205 1.9575 15.535 0.9375 15.875 C0.9375 16.535 0.9375 17.195 0.9375 17.875 C-0.0525 17.875 -1.0425 17.875 -2.0625 17.875 C-2.0625 17.215 -2.0625 16.555 -2.0625 15.875 C-3.3825 15.215 -4.7025 14.555 -6.0625 13.875 C-6.0625 12.885 -6.0625 11.895 -6.0625 10.875 C-5.0725 10.545 -4.0825 10.215 -3.0625 9.875 C-3.578125 9.483125 -4.09375 9.09125 -4.625 8.6875 C-6.0625 6.875 -6.0625 6.875 -5.9375 4.3125 C-4.81661546 1.19003592 -3.45105952 -0.20915512 0 0 Z " fill="#F5F5F5" transform="translate(73.0625,10.125)"/>
</svg>
